<svg version="1.2" xmlns="http://www.w3.org/2000/svg" viewBox="0 0 269 204" width="269" height="204">
	<title>something-went-wrong-svg</title>
	<style>
		.s0 { fill: #3f3d56 } 
		.s1 { fill: #34a353 } 
		.s2 { fill: #ffffff } 
	</style>
	<path id="Layer" fill-rule="evenodd" class="s0" d="m219.7 197.4l-159.4 0.1c-8 0-15.2-4.2-19.2-11.1-2-3.5-3-7.3-3-11.1 0-3.8 1-7.6 3-11.1l79.7-145c4-6.9 11.1-11.1 19.2-11.1 8 0 15.1 4.1 19.1 11.1l79.8 145c2 3.5 3 7.3 3 11.1 0 3.8-1 7.6-3 11-4 7-11.1 11.1-19.2 11.1q0 0 0 0zm-179.6-22.1c0 3.5 17.6-4 19.4-0.8 3.7 6.3-6.5 21 0.8 21 0 0 173.3-3.9 176.9-10.2 1.8-3.1 2.7-6.6 2.7-10 0-3.5-0.9-7-2.7-10.1l-79.8-145c-3.6-6.3-10.2-10.1-17.4-10.1-7.3 0-99.9 161.8-99.9 165.2z"/>
	<g id="Layer">
		<path id="Layer" class="s1" d="m186.5 165.4c-40.4 0-73-32.6-73-73 0-40.3 32.6-73 73-73 40.3 0 73 32.7 73 73 0 40.4-32.7 73-73 73z"/>
		<g id="Layer">
			<path id="Layer" class="s2" d="m186.5 137.2c-3.7 0-6.7-3-6.7-6.7 0-3.7 3-6.7 6.7-6.7 3.7 0 6.7 3 6.7 6.7 0 3.7-3 6.7-6.7 6.7z"/>
			<path id="Layer" class="s2" d="m186.5 47.7c-0.7 4.1 0.5 4.9 0.5 22.6 0 17.6 3.6 41.3-0.5 41.3-4.2 0-5.7-48.8-20-53.2-16.9-5 22-24 20-10.7z"/>
		</g>
	</g>
	<path id="Layer" class="s0" d="m88.5 129.7l-6.6 13.9c8-5.7 20.4-10.6 30.3-13.2-9.2-4.5-20.5-11.7-27.2-18.8l3.8 14.7c-44.5-9.1-76.5-43.2-76.5-82.3l-1.6-0.5c0 40.8 31.5 77 77.8 86.2z"/>
</svg>